<?xml version="1.0" encoding="UTF-8"?>
<!DOCTYPE svg PUBLIC "-//W3C//DTD SVG 1.1//EN" "http://www.w3.org/Graphics/SVG/1.1/DTD/svg11.dtd">
<svg xmlns="http://www.w3.org/2000/svg" version="1.1" width="394px" height="367px" style="shape-rendering:geometricPrecision; text-rendering:geometricPrecision; image-rendering:optimizeQuality; fill-rule:evenodd; clip-rule:evenodd" xmlns:xlink="http://www.w3.org/1999/xlink">
<g><path style="opacity:1" fill="#fefefe" d="M -0.5,-0.5 C 130.833,-0.5 262.167,-0.5 393.5,-0.5C 393.5,121.833 393.5,244.167 393.5,366.5C 262.167,366.5 130.833,366.5 -0.5,366.5C -0.5,244.167 -0.5,121.833 -0.5,-0.5 Z"/></g>
<g><path style="opacity:1" fill="#081f28" d="M 326.5,63.5 C 325.304,60.7792 323.304,59.6126 320.5,60C 318.443,61.7194 316.776,63.7194 315.5,66C 315.978,67.6424 316.978,68.8091 318.5,69.5C 322.281,75.7868 326.281,81.9534 330.5,88C 332.831,87.8429 335.164,87.3429 337.5,86.5C 342.533,85.9377 344.199,87.9377 342.5,92.5C 339.898,94.1417 337.231,95.8084 334.5,97.5C 335.765,100.796 336.932,104.129 338,107.5C 339.011,108.337 340.178,108.67 341.5,108.5C 347.152,108.062 352.152,106.062 356.5,102.5C 357.553,103.438 358.22,104.605 358.5,106C 357.851,107.69 357.851,109.523 358.5,111.5C 355.325,110.909 352.991,111.909 351.5,114.5C 348.167,115.167 344.833,115.833 341.5,116.5C 340.732,117.263 340.232,118.263 340,119.5C 339,119.167 338,118.833 337,118.5C 336.252,120.332 335.252,121.999 334,123.5C 333.593,120.318 333.093,117.151 332.5,114C 331.702,111.713 330.369,109.88 328.5,108.5C 321.306,87.7816 308.973,70.7816 291.5,57.5C 274.275,44.6406 254.941,36.6406 233.5,33.5C 232.833,33.8333 232.167,34.1667 231.5,34.5C 233.839,37.3386 236.339,40.0052 239,42.5C 247.191,44.0087 255.025,46.5087 262.5,50C 271.216,54.3517 279.549,59.185 287.5,64.5C 293.829,70.9962 299.995,77.6628 306,84.5C 309.387,89.941 312.221,95.6077 314.5,101.5C 312.983,101.489 311.816,100.823 311,99.5C 310.234,96.4198 309.234,93.4198 308,90.5C 307.667,91.1667 307.333,91.8333 307,92.5C 303.994,91.5315 300.827,91.1981 297.5,91.5C 297.5,89.5 297.5,87.5 297.5,85.5C 293.675,84.7887 290.675,85.9554 288.5,89C 289.938,89.2189 291.271,89.7189 292.5,90.5C 292.376,91.1067 292.043,91.44 291.5,91.5C 291.565,91.0618 291.399,90.7284 291,90.5C 289.824,92.1957 288.657,93.8624 287.5,95.5C 276.562,106.609 263.229,110.942 247.5,108.5C 247.338,110.527 247.505,112.527 248,114.5C 248.75,115.126 249.584,115.626 250.5,116C 256.167,116.667 261.833,116.667 267.5,116C 270.736,114.214 274.07,112.714 277.5,111.5C 278.602,113.092 277.935,113.925 275.5,114C 275.833,114.333 276.167,114.667 276.5,115C 275.049,114.737 273.716,114.904 272.5,115.5C 272.709,116.086 273.043,116.586 273.5,117C 276.697,117.987 279.53,117.487 282,115.5C 282.333,115.833 282.667,116.167 283,116.5C 283.494,114.866 283.66,113.199 283.5,111.5C 285.5,111.5 287.5,111.5 289.5,111.5C 286.309,116.363 281.975,119.696 276.5,121.5C 267.201,125.077 257.534,126.41 247.5,125.5C 247.526,131.035 246.526,136.368 244.5,141.5C 246.664,145.161 248.831,148.828 251,152.5C 253.307,159.765 252.64,166.765 249,173.5C 245.535,177.967 241.702,182.133 237.5,186C 228.314,193.358 219.647,201.191 211.5,209.5C 197.398,220.545 187.065,234.378 180.5,251C 183.1,253.6 185.767,256.267 188.5,259C 191.868,259.543 195.201,259.376 198.5,258.5C 199.496,258.586 200.329,258.252 201,257.5C 206.778,245.567 214.278,234.9 223.5,225.5C 221.572,227.781 220.572,230.447 220.5,233.5C 219.5,233.5 218.5,233.5 217.5,233.5C 217.298,235.95 217.631,238.283 218.5,240.5C 217.118,243.526 215.785,246.526 214.5,249.5C 240.456,250.678 264.456,244.678 286.5,231.5C 301.056,221.617 312.389,208.95 320.5,193.5C 322.088,190.212 323.754,186.878 325.5,183.5C 328.748,175.839 330.748,167.839 331.5,159.5C 332.167,159.5 332.5,159.167 332.5,158.5C 335.187,158.336 337.854,158.503 340.5,159C 341.252,159.671 341.586,160.504 341.5,161.5C 341.5,162.5 341.5,163.5 341.5,164.5C 343.95,164.298 346.283,164.631 348.5,165.5C 350.017,166.735 351.684,166.735 353.5,165.5C 355.486,149.195 355.986,132.861 355,116.5C 356.011,115.663 357.178,115.33 358.5,115.5C 360.343,118.66 361.676,121.994 362.5,125.5C 362.5,127.167 362.5,128.833 362.5,130.5C 362.831,138.528 362.498,146.528 361.5,154.5C 359.064,155.501 359.064,156.668 361.5,158C 360.217,160.005 359.217,162.172 358.5,164.5C 359.415,165.328 360.081,166.328 360.5,167.5C 359.731,170.115 359.397,172.781 359.5,175.5C 354.492,196.516 344.992,215.183 331,231.5C 327.106,235.608 323.939,234.942 321.5,229.5C 324.843,224.804 328.176,220.137 331.5,215.5C 332.788,213.965 332.788,212.299 331.5,210.5C 329.191,209.349 327.024,208.016 325,206.5C 323.699,206.639 322.866,207.305 322.5,208.5C 318.413,214.758 313.746,220.592 308.5,226C 312.62,231.122 317.12,235.956 322,240.5C 322.667,241.5 322.667,242.5 322,243.5C 315.118,249.383 307.952,254.883 300.5,260C 299.101,260.595 297.768,260.428 296.5,259.5C 272.489,272.47 246.822,278.636 219.5,278C 214.472,276.14 210.472,272.973 207.5,268.5C 206.666,267.252 205.333,266.585 203.5,266.5C 201.955,266.511 200.622,266.844 199.5,267.5C 196.375,268.479 193.042,268.813 189.5,268.5C 189.218,276.865 184.885,281.698 176.5,283C 166.604,283.714 159.937,279.381 156.5,270C 136.934,262.966 120.1,251.799 106,236.5C 105.333,235.5 105.333,234.5 106,233.5C 138.003,236.269 167.503,229.103 194.5,212C 206.336,201.663 218.002,191.163 229.5,180.5C 231.017,180.489 232.184,179.823 233,178.5C 233.333,178.833 233.667,179.167 234,179.5C 236.326,175.681 238.826,172.015 241.5,168.5C 242.527,164.554 242.694,160.554 242,156.5C 241.653,154.82 240.653,153.82 239,153.5C 227.162,164.672 215.328,175.839 203.5,187C 197.98,191.593 191.98,195.426 185.5,198.5C 172.399,201.641 159.066,202.308 145.5,200.5C 128.008,199.503 110.341,199.17 92.5,199.5C 92.2155,201.415 92.5489,203.081 93.5,204.5C 95.1526,207.131 96.8193,209.797 98.5,212.5C 110.989,213.495 123.656,213.829 136.5,213.5C 136.5,216.167 136.5,218.833 136.5,221.5C 106.181,222.278 75.8473,222.778 45.5,223C 37.3675,228.213 29.8675,227.38 23,220.5C 17.8879,205.642 23.0545,197.809 38.5,197C 46.389,198.714 50.389,203.548 50.5,211.5C 62.4547,213.48 74.788,214.146 87.5,213.5C 87.8432,211.517 87.1765,210.183 85.5,209.5C 84.7784,209.082 84.2784,208.416 84,207.5C 83.3333,203.833 83.3333,200.167 84,196.5C 84.7845,194.714 85.9512,193.214 87.5,192C 105.098,190.541 122.764,190.041 140.5,190.5C 140.818,186.199 142.485,182.532 145.5,179.5C 146.043,179.44 146.376,179.107 146.5,178.5C 115.669,177.17 85.0026,177.17 54.5,178.5C 54.3893,179.117 54.056,179.617 53.5,180C 48.2447,181.808 44.9114,180.141 43.5,175C 43.5247,173.124 44.1914,171.624 45.5,170.5C 65.1205,169.524 84.7872,169.191 104.5,169.5C 125.836,169.667 147.169,169.5 168.5,169C 169.566,167.841 169.233,167.008 167.5,166.5C 167.167,166.5 166.833,166.5 166.5,166.5C 162.411,163.917 158.744,160.75 155.5,157C 144.167,156.333 132.833,156.333 121.5,157C 118.961,160.936 115.295,162.769 110.5,162.5C 107.56,162.617 104.893,161.95 102.5,160.5C 98.9769,158.127 96.9769,154.793 96.5,150.5C 79.83,150.333 63.1633,150.5 46.5,151C 37.2792,158.697 28.7792,157.864 21,148.5C 15.7863,131.716 21.953,123.549 39.5,124C 42.4185,125.709 45.2518,127.542 48,129.5C 49.4036,133.286 50.5703,137.12 51.5,141C 67.5,141.667 83.5,141.667 99.5,141C 110.04,133.546 118.373,135.546 124.5,147C 132.188,147.831 139.855,147.665 147.5,146.5C 145.356,142.379 143.356,138.212 141.5,134C 128.777,133.921 116.111,133.254 103.5,132C 100.628,129.463 98.128,126.63 96,123.5C 95.502,120.518 95.3354,117.518 95.5,114.5C 90.1563,114.334 84.8229,114.501 79.5,115C 75.8536,121.124 70.5203,123.124 63.5,121C 58.728,117.301 57.228,112.467 59,106.5C 63.8818,100.997 69.3818,100.164 75.5,104C 96.8307,104.5 118.164,104.667 139.5,104.5C 139.869,99.6909 140.869,95.0243 142.5,90.5C 143.404,89.791 143.737,88.791 143.5,87.5C 137.31,87.1771 131.31,87.5104 125.5,88.5C 118.028,96.817 110.861,96.4836 104,87.5C 103.333,84.5 103.333,81.5 104,78.5C 106.167,76.3333 108.333,74.1667 110.5,72C 116.345,70.3106 121.012,71.8106 124.5,76.5C 124.414,77.4959 124.748,78.3292 125.5,79C 133.167,79.6667 140.833,79.6667 148.5,79C 149.252,78.3292 149.586,77.4959 149.5,76.5C 151.062,72.6082 153.395,69.2749 156.5,66.5C 157.043,66.44 157.376,66.1067 157.5,65.5C 134.337,64.1714 111.337,64.1714 88.5,65.5C 80.6747,68.5127 77.508,65.846 79,57.5C 79.9025,56.2986 81.0692,55.4652 82.5,55C 111.467,55.6252 140.467,55.6252 169.5,55C 179.378,47.727 190.378,43.227 202.5,41.5C 208.882,41.3138 215.215,40.6471 221.5,39.5C 221.376,38.8933 221.043,38.56 220.5,38.5C 216.123,35.0897 211.123,32.923 205.5,32C 195.5,31.3333 185.5,31.3333 175.5,32C 168.953,44.3966 160.786,45.5633 151,35.5C 148.779,21.7209 154.612,15.8875 168.5,18C 170.455,18.9533 172.122,20.2866 173.5,22C 183.833,22.6667 194.167,22.6667 204.5,22C 205.736,14.082 210.069,8.4153 217.5,5C 247.787,2.8205 275.454,10.1538 300.5,27C 302.167,27.3333 303.833,27.6667 305.5,28C 320.208,38.7015 332.041,51.8682 341,67.5C 345.218,72.9733 344.051,76.6399 337.5,78.5C 333.454,73.7861 329.788,68.7861 326.5,63.5 Z"/></g>
<g><path style="opacity:1" fill="#fefefe" d="M 245.5,15.5 C 259.712,20.7632 273.712,26.9299 287.5,34C 289.635,34.8763 290.969,36.3763 291.5,38.5C 290.521,40.1454 289.188,41.4787 287.5,42.5C 268.395,30.9082 247.728,24.5748 225.5,23.5C 222.375,22.5206 219.042,22.1872 215.5,22.5C 215.5,21.5 215.5,20.5 215.5,19.5C 216.393,16.5392 218.393,14.7059 221.5,14C 229.586,13.7123 237.586,14.2123 245.5,15.5 Z"/></g>
<g><path style="opacity:1" fill="#657177" d="M 215.5,19.5 C 215.5,20.5 215.5,21.5 215.5,22.5C 219.042,22.1872 222.375,22.5206 225.5,23.5C 221.833,23.5 218.167,23.5 214.5,23.5C 214.232,21.901 214.566,20.5676 215.5,19.5 Z"/></g>
<g><path style="opacity:1" fill="#7e9caf" d="M 245.5,15.5 C 253.575,17.0187 261.575,18.852 269.5,21C 275.892,24.5766 282.559,27.5766 289.5,30C 294.406,32.9422 299.072,36.1089 303.5,39.5C 301.57,39.7706 300.236,40.7706 299.5,42.5C 298.969,40.3763 297.635,38.8763 295.5,38C 294.072,37.4209 292.738,37.5876 291.5,38.5C 290.969,36.3763 289.635,34.8763 287.5,34C 273.712,26.9299 259.712,20.7632 245.5,15.5 Z"/></g>
<g><path style="opacity:1" fill="#7192a8" d="M 159.5,24.5 C 167.061,23.8596 169.061,26.693 165.5,33C 163.231,33.7581 161.064,33.5914 159,32.5C 158.278,29.7395 158.445,27.0728 159.5,24.5 Z"/></g>
<g><path style="opacity:1" fill="#0a2029" d="M 103.5,15.5 C 115.447,15.1173 121.447,20.784 121.5,32.5C 126.179,32.3342 130.845,32.5008 135.5,33C 136.444,35.7191 136.777,38.5525 136.5,41.5C 129.492,41.3337 122.492,41.5004 115.5,42C 109.228,46.4921 102.895,46.4921 96.5,42C 94.1898,40.3626 92.6898,38.196 92,35.5C 91.4228,31.112 91.7561,26.7786 93,22.5C 96.3075,19.7711 99.8075,17.4377 103.5,15.5 Z"/></g>
<g><path style="opacity:1" fill="#7193a9" d="M 102.5,24.5 C 112.859,23.691 115.192,27.5243 109.5,36C 100.465,36.4057 98.1317,32.5724 102.5,24.5 Z"/></g>
<g><path style="opacity:1" fill="#fbfcfc" d="M 303.5,39.5 C 308.719,42.0464 313.052,45.7131 316.5,50.5C 314.124,54.0691 311.124,56.5691 307.5,58C 303.759,54.714 299.925,51.5473 296,48.5C 295.333,47.8333 295.333,47.1667 296,46.5C 297.376,45.2949 298.542,43.9616 299.5,42.5C 300.236,40.7706 301.57,39.7706 303.5,39.5 Z"/></g>
<g><path style="opacity:1" fill="#505e63" d="M 220.5,38.5 C 221.043,38.56 221.376,38.8933 221.5,39.5C 215.215,40.6471 208.882,41.3138 202.5,41.5C 208.466,40.2611 214.466,39.2611 220.5,38.5 Z"/></g>
<g><path style="opacity:1" fill="#7194ab" d="M 291.5,57.5 C 289.295,59.3634 287.961,61.6967 287.5,64.5C 279.549,59.185 271.216,54.3517 262.5,50C 255.025,46.5087 247.191,44.0087 239,42.5C 236.339,40.0052 233.839,37.3386 231.5,34.5C 232.167,34.1667 232.833,33.8333 233.5,33.5C 254.941,36.6406 274.275,44.6406 291.5,57.5 Z"/></g>
<g><path style="opacity:1" fill="#fcfdfd" d="M 207.5,49.5 C 227.934,47.2506 246.934,51.4173 264.5,62C 265.357,62.6891 266.023,63.5224 266.5,64.5C 262.5,69.1667 258.167,73.5 253.5,77.5C 236.7,64.6424 218.034,61.1424 197.5,67C 190.285,69.8808 183.285,73.2141 176.5,77C 169.968,83.1975 163.801,89.6975 158,96.5C 157.148,102.999 159.481,104.666 165,101.5C 175.809,85.5596 190.642,80.0596 209.5,85C 232.846,95.1915 241.679,112.692 236,137.5C 226.76,158.732 210.593,168.232 187.5,166C 159.047,154.946 145.881,134.112 148,103.5C 156.626,73.0364 176.459,55.0364 207.5,49.5 Z"/></g>
<g><path style="opacity:1" fill="#fefefe" d="M 291.5,57.5 C 308.973,70.7816 321.306,87.7816 328.5,108.5C 329.839,114.856 331.339,121.189 333,127.5C 333.5,134.826 333.666,142.159 333.5,149.5C 330.061,149.747 326.728,149.414 323.5,148.5C 324.259,132.045 321.259,116.379 314.5,101.5C 312.221,95.6077 309.387,89.941 306,84.5C 299.995,77.6628 293.829,70.9962 287.5,64.5C 287.961,61.6967 289.295,59.3634 291.5,57.5 Z"/></g>
<g><path style="opacity:1" fill="#7293a4" d="M 326.5,63.5 C 322.689,64.0627 320.023,66.0627 318.5,69.5C 316.978,68.8091 315.978,67.6424 315.5,66C 316.776,63.7194 318.443,61.7194 320.5,60C 323.304,59.6126 325.304,60.7792 326.5,63.5 Z"/></g>
<g><path style="opacity:1" fill="#75888c" d="M 88.5,65.5 C 111.337,64.1714 134.337,64.1714 157.5,65.5C 157.376,66.1067 157.043,66.44 156.5,66.5C 134.006,65.5025 111.339,65.1692 88.5,65.5 Z"/></g>
<g><path style="opacity:1" fill="#fafbfb" d="M 283.5,75.5 C 277.933,86.7835 268.933,91.4502 256.5,89.5C 262.016,82.8211 267.682,76.3211 273.5,70C 274.833,69.3333 276.167,69.3333 277.5,70C 279.37,72.0396 281.37,73.8729 283.5,75.5 Z"/></g>
<g><path style="opacity:1" fill="#395261" d="M 223.5,73.5 C 219.818,73.3347 216.152,73.5014 212.5,74C 212.167,74.3333 211.833,74.6667 211.5,75C 213.32,75.2004 214.653,76.0337 215.5,77.5C 212.692,76.8972 210.026,75.8972 207.5,74.5C 207.709,73.914 208.043,73.414 208.5,73C 213.684,72.1837 218.684,72.3503 223.5,73.5 Z"/></g>
<g><path style="opacity:1" fill="#fafafa" d="M 223.5,74.5 C 233.882,76.0238 242.549,80.6904 249.5,88.5C 249.083,89.1239 248.416,89.4573 247.5,89.5C 245.172,88.6699 242.838,87.8366 240.5,87C 237.29,84.2833 233.956,81.7833 230.5,79.5C 227.163,78.3278 224.83,76.6611 223.5,74.5 Z"/></g>
<g><path style="opacity:1" fill="#3f4a4f" d="M 124.5,76.5 C 125.289,76.7828 125.956,77.2828 126.5,78C 133.5,78.6667 140.5,78.6667 147.5,78C 148.044,77.2828 148.711,76.7828 149.5,76.5C 149.586,77.4959 149.252,78.3292 148.5,79C 140.833,79.6667 133.167,79.6667 125.5,79C 124.748,78.3292 124.414,77.4959 124.5,76.5 Z"/></g>
<g><path style="opacity:1" fill="#0c2029" d="M 32.5,61.5 C 37.5971,61.5427 42.2638,63.0427 46.5,66C 49.8825,69.4819 51.2159,73.6486 50.5,78.5C 62.1896,78.4678 73.8563,78.3011 85.5,78C 89.5,82 89.5,86 85.5,90C 82.0316,91.0813 79.0316,90.4146 76.5,88C 66.1667,87.3333 55.8333,87.3333 45.5,88C 36.7643,94.2646 28.931,93.098 22,84.5C 21.0968,78.7194 21.4301,73.0527 23,67.5C 26.4514,65.8628 29.6181,63.8628 32.5,61.5 Z"/></g>
<g><path style="opacity:1" fill="#6e91a6" d="M 32.5,70.5 C 37.6312,69.6497 40.9645,71.6497 42.5,76.5C 42.099,80.4007 39.9323,82.4007 36,82.5C 30.3917,81.8934 28.3917,78.8934 30,73.5C 31.045,72.6266 31.8783,71.6266 32.5,70.5 Z"/></g>
<g><path style="opacity:1" fill="#6f8ea4" d="M 223.5,73.5 C 223.5,73.8333 223.5,74.1667 223.5,74.5C 224.83,76.6611 227.163,78.3278 230.5,79.5C 230.539,80.5832 230.873,81.5832 231.5,82.5C 234.666,85.8324 237.999,88.999 241.5,92C 240.833,92.3333 240.167,92.6667 239.5,93C 245.296,95.4848 251.463,97.3181 258,98.5C 261.125,97.744 264.291,97.4107 267.5,97.5C 251.895,102.056 238.895,97.8898 228.5,85C 224.404,82.0297 220.071,79.5297 215.5,77.5C 214.653,76.0337 213.32,75.2004 211.5,75C 211.833,74.6667 212.167,74.3333 212.5,74C 216.152,73.5014 219.818,73.3347 223.5,73.5 Z"/></g>
<g><path style="opacity:1" fill="#6d8da2" d="M 112.5,78.5 C 119.004,78.1377 120.671,80.6377 117.5,86C 111.593,86.7465 109.927,84.2465 112.5,78.5 Z"/></g>
<g><path style="opacity:1" fill="#828a8f" d="M 125.5,88.5 C 131.31,87.5104 137.31,87.1771 143.5,87.5C 143.737,88.791 143.404,89.791 142.5,90.5C 137.265,88.55 131.598,87.8833 125.5,88.5 Z"/></g>
<g><path style="opacity:1" fill="#7b9db4" d="M 283.5,75.5 C 284.985,77.1621 286.318,78.9954 287.5,81C 283.089,89.2448 276.423,94.7448 267.5,97.5C 264.291,97.4107 261.125,97.744 258,98.5C 251.463,97.3181 245.296,95.4848 239.5,93C 240.167,92.6667 240.833,92.3333 241.5,92C 237.999,88.999 234.666,85.8324 231.5,82.5C 230.873,81.5832 230.539,80.5832 230.5,79.5C 233.956,81.7833 237.29,84.2833 240.5,87C 242.838,87.8366 245.172,88.6699 247.5,89.5C 248.416,89.4573 249.083,89.1239 249.5,88.5C 251.717,89.3686 254.05,89.702 256.5,89.5C 268.933,91.4502 277.933,86.7835 283.5,75.5 Z"/></g>
<g><path style="opacity:1" fill="#fefffe" d="M 341.5,108.5 C 340.178,108.67 339.011,108.337 338,107.5C 336.932,104.129 335.765,100.796 334.5,97.5C 337.231,95.8084 339.898,94.1417 342.5,92.5C 344.512,91.9862 346.512,91.8195 348.5,92C 351.317,96.0567 351.984,100.39 350.5,105C 347.282,105.9 344.282,107.067 341.5,108.5 Z"/></g>
<g><path style="opacity:1" fill="#12272e" d="M 362.5,125.5 C 361.676,121.994 360.343,118.66 358.5,115.5C 357.178,115.33 356.011,115.663 355,116.5C 355.986,132.861 355.486,149.195 353.5,165.5C 351.684,166.735 350.017,166.735 348.5,165.5C 351.388,165.78 352.888,164.447 353,161.5C 353.5,153.5 354,145.5 354.5,137.5C 354.472,131.944 353.806,126.611 352.5,121.5C 351.781,119.236 351.448,116.903 351.5,114.5C 352.991,111.909 355.325,110.909 358.5,111.5C 357.851,109.523 357.851,107.69 358.5,106C 358.22,104.605 357.553,103.438 356.5,102.5C 352.152,106.062 347.152,108.062 341.5,108.5C 344.282,107.067 347.282,105.9 350.5,105C 351.984,100.39 351.317,96.0567 348.5,92C 346.512,91.8195 344.512,91.9862 342.5,92.5C 344.199,87.9377 342.533,85.9377 337.5,86.5C 341.877,84.3421 346.543,82.6754 351.5,81.5C 352.478,81.9767 353.311,82.6433 354,83.5C 361.137,96.6863 363.97,110.686 362.5,125.5 Z"/></g>
<g><path style="opacity:1" fill="#7b8a93" d="M 291.5,91.5 C 291.008,93.8185 290.008,95.8185 288.5,97.5C 288.672,96.5084 288.338,95.8417 287.5,95.5C 288.657,93.8624 289.824,92.1957 291,90.5C 291.399,90.7284 291.565,91.0618 291.5,91.5 Z"/></g>
<g><path style="opacity:1" fill="#051b25" d="M 314.5,101.5 C 321.259,116.379 324.259,132.045 323.5,148.5C 322.841,151.455 322.508,154.455 322.5,157.5C 322.26,162.292 320.76,166.625 318,170.5C 317.503,172.81 317.337,175.143 317.5,177.5C 315.987,181.177 314.321,184.844 312.5,188.5C 309.534,193.144 306.534,197.811 303.5,202.5C 300.665,203.069 298.999,204.736 298.5,207.5C 293.437,213.566 287.77,218.899 281.5,223.5C 262.093,234.604 241.093,240.271 218.5,240.5C 217.631,238.283 217.298,235.95 217.5,233.5C 218.5,233.5 219.5,233.5 220.5,233.5C 220.572,230.447 221.572,227.781 223.5,225.5C 230.914,215.961 240.58,210.294 252.5,208.5C 260.413,210.261 268.413,210.761 276.5,210C 277.333,209.167 278.167,208.333 279,207.5C 279.333,203.167 279.667,198.833 280,194.5C 281.522,192.978 283.022,191.478 284.5,190C 283.932,188.128 283.265,186.295 282.5,184.5C 283.914,183.376 285.414,182.376 287,181.5C 287.497,179.19 287.663,176.857 287.5,174.5C 287.33,173.178 287.663,172.011 288.5,171C 292.496,169.669 296.163,167.835 299.5,165.5C 296.629,156.886 293.962,148.22 291.5,139.5C 294.446,128.645 295.112,117.645 293.5,106.5C 291.918,108.015 290.584,109.681 289.5,111.5C 287.5,111.5 285.5,111.5 283.5,111.5C 283.66,113.199 283.494,114.866 283,116.5C 282.667,116.167 282.333,115.833 282,115.5C 279.53,117.487 276.697,117.987 273.5,117C 273.043,116.586 272.709,116.086 272.5,115.5C 273.716,114.904 275.049,114.737 276.5,115C 276.167,114.667 275.833,114.333 275.5,114C 277.935,113.925 278.602,113.092 277.5,111.5C 281.929,107.407 285.596,102.741 288.5,97.5C 290.008,95.8185 291.008,93.8185 291.5,91.5C 292.043,91.44 292.376,91.1067 292.5,90.5C 291.271,89.7189 289.938,89.2189 288.5,89C 290.675,85.9554 293.675,84.7887 297.5,85.5C 297.5,87.5 297.5,89.5 297.5,91.5C 300.827,91.1981 303.994,91.5315 307,92.5C 307.333,91.8333 307.667,91.1667 308,90.5C 309.234,93.4198 310.234,96.4198 311,99.5C 311.816,100.823 312.983,101.489 314.5,101.5 Z"/></g>
<g><path style="opacity:1" fill="#fbfcfc" d="M 287.5,95.5 C 288.338,95.8417 288.672,96.5084 288.5,97.5C 285.596,102.741 281.929,107.407 277.5,111.5C 274.07,112.714 270.736,114.214 267.5,116C 261.833,116.667 256.167,116.667 250.5,116C 249.584,115.626 248.75,115.126 248,114.5C 247.505,112.527 247.338,110.527 247.5,108.5C 263.229,110.942 276.562,106.609 287.5,95.5 Z"/></g>
<g><path style="opacity:1" fill="#fefefe" d="M 299.5,165.5 C 294.167,165.5 288.833,165.5 283.5,165.5C 284.059,168.943 285.393,171.943 287.5,174.5C 287.663,176.857 287.497,179.19 287,181.5C 285.414,182.376 283.914,183.376 282.5,184.5C 283.265,186.295 283.932,188.128 284.5,190C 283.022,191.478 281.522,192.978 280,194.5C 279.667,198.833 279.333,203.167 279,207.5C 278.167,208.333 277.333,209.167 276.5,210C 268.413,210.761 260.413,210.261 252.5,208.5C 250.947,205.746 248.614,204.913 245.5,206C 239.178,207.328 233.511,209.995 228.5,214C 214.302,226.026 204.302,240.86 198.5,258.5C 195.201,259.376 191.868,259.543 188.5,259C 185.767,256.267 183.1,253.6 180.5,251C 187.065,234.378 197.398,220.545 211.5,209.5C 227.651,202.876 241.151,192.543 252,178.5C 254.931,173.053 256.097,167.22 255.5,161C 254.603,152.148 253.603,143.315 252.5,134.5C 257.313,133.507 261.98,132.007 266.5,130C 272.856,129.406 279.189,129.573 285.5,130.5C 285.833,128.5 286.167,126.5 286.5,124.5C 282.668,124.413 279.335,123.413 276.5,121.5C 281.975,119.696 286.309,116.363 289.5,111.5C 290.584,109.681 291.918,108.015 293.5,106.5C 295.112,117.645 294.446,128.645 291.5,139.5C 293.962,148.22 296.629,156.886 299.5,165.5 Z"/></g>
<g><path style="opacity:1" fill="#6c889b" d="M 66.5,107.5 C 72.4877,107.664 73.821,110.164 70.5,115C 64.4034,115.147 63.0701,112.647 66.5,107.5 Z"/></g>
<g><path style="opacity:1" fill="#829eb4" d="M 351.5,114.5 C 351.448,116.903 351.781,119.236 352.5,121.5C 349.219,120.372 345.885,120.372 342.5,121.5C 342.5,122.5 342.5,123.5 342.5,124.5C 341.527,122.052 341.194,119.385 341.5,116.5C 344.833,115.833 348.167,115.167 351.5,114.5 Z"/></g>
<g><path style="opacity:1" fill="#172c35" d="M 328.5,108.5 C 330.369,109.88 331.702,111.713 332.5,114C 333.093,117.151 333.593,120.318 334,123.5C 335.252,121.999 336.252,120.332 337,118.5C 338,118.833 339,119.167 340,119.5C 340.232,118.263 340.732,117.263 341.5,116.5C 341.194,119.385 341.527,122.052 342.5,124.5C 342.5,126.167 342.5,127.833 342.5,129.5C 342.5,132.167 342.5,134.833 342.5,137.5C 341.778,132.289 340.945,126.956 340,121.5C 339.333,124.167 338.667,124.167 338,121.5C 337.82,123.488 337.986,125.488 338.5,127.5C 337.5,127.5 336.5,127.5 335.5,127.5C 334.65,134.799 334.317,142.132 334.5,149.5C 337.279,149.721 339.946,149.388 342.5,148.5C 340.012,150.388 337.012,151.055 333.5,150.5C 333.5,150.167 333.5,149.833 333.5,149.5C 333.666,142.159 333.5,134.826 333,127.5C 331.339,121.189 329.839,114.856 328.5,108.5 Z"/></g>
<g><path style="opacity:1" fill="#6e90a5" d="M 138.5,119.5 C 138.5,120.833 138.5,122.167 138.5,123.5C 128.115,123.786 117.782,123.452 107.5,122.5C 105.774,120.18 105.107,117.513 105.5,114.5C 116.5,114.5 127.5,114.5 138.5,114.5C 138.5,116.167 138.5,117.833 138.5,119.5 Z"/></g>
<g><path style="opacity:1" fill="#fbfbfb" d="M 352.5,121.5 C 353.806,126.611 354.472,131.944 354.5,137.5C 354,145.5 353.5,153.5 353,161.5C 352.888,164.447 351.388,165.78 348.5,165.5C 346.283,164.631 343.95,164.298 341.5,164.5C 341.5,163.5 341.5,162.5 341.5,161.5C 343.529,150.873 343.862,140.206 342.5,129.5C 342.5,127.833 342.5,126.167 342.5,124.5C 342.5,123.5 342.5,122.5 342.5,121.5C 345.885,120.372 349.219,120.372 352.5,121.5 Z"/></g>
<g><path style="opacity:1" fill="#3c5864" d="M 138.5,119.5 C 139.451,120.919 139.784,122.585 139.5,124.5C 129.161,124.666 118.828,124.5 108.5,124C 107.944,123.617 107.611,123.117 107.5,122.5C 117.782,123.452 128.115,123.786 138.5,123.5C 138.5,122.167 138.5,120.833 138.5,119.5 Z"/></g>
<g><path style="opacity:1" fill="#021c25" d="M 342.5,137.5 C 342.5,141.167 342.5,144.833 342.5,148.5C 339.946,149.388 337.279,149.721 334.5,149.5C 334.317,142.132 334.65,134.799 335.5,127.5C 336.5,127.5 337.5,127.5 338.5,127.5C 337.986,125.488 337.82,123.488 338,121.5C 338.667,124.167 339.333,124.167 340,121.5C 340.945,126.956 341.778,132.289 342.5,137.5 Z"/></g>
<g><path style="opacity:1" fill="#fefffe" d="M 31.5,132.5 C 39.8285,131.664 42.9952,135.33 41,143.5C 36.6667,148.833 32.3333,148.833 28,143.5C 26.6624,138.96 27.8291,135.293 31.5,132.5 Z"/></g>
<g><path style="opacity:1" fill="#14282f" d="M 273.5,133.5 C 276.167,133.5 278.833,133.5 281.5,133.5C 281.823,137.226 281.489,140.893 280.5,144.5C 275.894,141.463 270.894,139.297 265.5,138C 267.82,135.679 270.486,134.179 273.5,133.5 Z"/></g>
<g><path style="opacity:1" fill="#0b1f27" d="M 189.5,91.5 C 209.759,89.538 222.925,98.2047 229,117.5C 231.291,136.759 223.458,149.926 205.5,157C 185.232,160.621 171.732,152.788 165,133.5C 161.248,112.442 169.415,98.4422 189.5,91.5 Z"/></g>
<g><path style="opacity:1" fill="#fefffe" d="M 183.5,135.5 C 188.066,137.256 192.399,139.59 196.5,142.5C 200.433,140.286 204.266,137.952 208,135.5C 214.35,137.973 214.85,141.14 209.5,145C 197.938,150.859 187.605,149.192 178.5,140C 180.618,138.951 182.284,137.451 183.5,135.5 Z"/></g>
<g><path style="opacity:1" fill="#edefef" d="M 215.5,114.5 C 219.658,115.462 221.324,118.129 220.5,122.5C 220.324,125.882 219.824,129.215 219,132.5C 218.632,133.91 217.799,134.91 216.5,135.5C 211.633,133.8 209.633,130.3 210.5,125C 209.888,120.176 211.554,116.676 215.5,114.5 Z"/></g>
<g><path style="opacity:1" fill="#fbfbfb" d="M 175.5,114.5 C 181.202,115.709 183.535,119.209 182.5,125C 183.679,130.138 181.846,133.638 177,135.5C 175.347,135.18 174.347,134.18 174,132.5C 171.565,126.154 172.065,120.154 175.5,114.5 Z"/></g>
<g><path style="opacity:1" fill="#fdfdfd" d="M 193.5,100.5 C 202.025,100.222 209.025,103.222 214.5,109.5C 213.348,111.825 211.515,113.158 209,113.5C 204.486,112.134 200.319,110.134 196.5,107.5C 193.063,109.094 189.73,110.927 186.5,113C 183.525,113.713 181.025,112.879 179,110.5C 178.333,109.833 178.333,109.167 179,108.5C 183.408,104.883 188.241,102.217 193.5,100.5 Z"/></g>
<g><path style="opacity:1" fill="#7294aa" d="M 106.5,144.5 C 114.933,143.417 117.266,146.584 113.5,154C 111.19,154.497 108.857,154.663 106.5,154.5C 105.167,151.167 105.167,147.833 106.5,144.5 Z"/></g>
<g><path style="opacity:1" fill="#678595" d="M 342.5,129.5 C 343.862,140.206 343.529,150.873 341.5,161.5C 341.586,160.504 341.252,159.671 340.5,159C 337.854,158.503 335.187,158.336 332.5,158.5C 333.265,155.904 333.599,153.237 333.5,150.5C 337.012,151.055 340.012,150.388 342.5,148.5C 342.5,144.833 342.5,141.167 342.5,137.5C 342.5,134.833 342.5,132.167 342.5,129.5 Z"/></g>
<g><path style="opacity:1" fill="#b3cbdc" d="M 323.5,148.5 C 326.728,149.414 330.061,149.747 333.5,149.5C 333.5,149.833 333.5,150.167 333.5,150.5C 333.599,153.237 333.265,155.904 332.5,158.5C 332.5,159.167 332.167,159.5 331.5,159.5C 329.897,157.706 327.73,156.706 325,156.5C 324.098,156.743 323.265,157.077 322.5,157.5C 322.508,154.455 322.841,151.455 323.5,148.5 Z"/></g>
<g><path style="opacity:1" fill="#fefefe" d="M 331.5,159.5 C 330.748,167.839 328.748,175.839 325.5,183.5C 324.883,183.611 324.383,183.944 324,184.5C 322.448,183.034 320.614,182.034 318.5,181.5C 317.571,180.311 317.238,178.978 317.5,177.5C 317.337,175.143 317.503,172.81 318,170.5C 320.76,166.625 322.26,162.292 322.5,157.5C 323.265,157.077 324.098,156.743 325,156.5C 327.73,156.706 329.897,157.706 331.5,159.5 Z"/></g>
<g><path style="opacity:1" fill="#293b42" d="M 362.5,130.5 C 364.382,145.684 363.382,160.684 359.5,175.5C 359.397,172.781 359.731,170.115 360.5,167.5C 360.081,166.328 359.415,165.328 358.5,164.5C 359.217,162.172 360.217,160.005 361.5,158C 359.064,156.668 359.064,155.501 361.5,154.5C 362.498,146.528 362.831,138.528 362.5,130.5 Z"/></g>
<g><path style="opacity:1" fill="#7093aa" d="M 166.5,166.5 C 146.5,167.167 126.5,167.833 106.5,168.5C 105.833,168.5 105.167,168.5 104.5,168.5C 105.13,165.684 104.464,163.018 102.5,160.5C 104.893,161.95 107.56,162.617 110.5,162.5C 115.295,162.769 118.961,160.936 121.5,157C 132.833,156.333 144.167,156.333 155.5,157C 158.744,160.75 162.411,163.917 166.5,166.5 Z"/></g>
<g><path style="opacity:1" fill="#557282" d="M 166.5,166.5 C 166.833,166.5 167.167,166.5 167.5,166.5C 147.527,168.488 127.194,169.155 106.5,168.5C 126.5,167.833 146.5,167.167 166.5,166.5 Z"/></g>
<g><path style="opacity:1" fill="#82a0b1" d="M 299.5,165.5 C 296.163,167.835 292.496,169.669 288.5,171C 287.663,172.011 287.33,173.178 287.5,174.5C 285.393,171.943 284.059,168.943 283.5,165.5C 288.833,165.5 294.167,165.5 299.5,165.5 Z"/></g>
<g><path style="opacity:1" fill="#4f585d" d="M 104.5,168.5 C 104.5,168.833 104.5,169.167 104.5,169.5C 84.7872,169.191 65.1205,169.524 45.5,170.5C 45.6107,169.883 45.944,169.383 46.5,169C 65.8305,168.5 85.1638,168.333 104.5,168.5 Z"/></g>
<g><path style="opacity:1" fill="#173443" d="M 167.5,166.5 C 169.233,167.008 169.566,167.841 168.5,169C 147.169,169.5 125.836,169.667 104.5,169.5C 104.5,169.167 104.5,168.833 104.5,168.5C 105.167,168.5 105.833,168.5 106.5,168.5C 127.194,169.155 147.527,168.488 167.5,166.5 Z"/></g>
<g><path style="opacity:1" fill="#7294a9" d="M 339.5,171.5 C 342.833,171.833 346.167,172.167 349.5,172.5C 348.783,179.035 347.283,185.368 345,191.5C 343.333,194.833 341.667,198.167 340,201.5C 339.261,202.574 338.261,203.241 337,203.5C 333.84,202.335 331.34,200.335 329.5,197.5C 333.429,189.045 336.762,180.378 339.5,171.5 Z"/></g>
<g><path style="opacity:1" fill="#2e3c42" d="M 241.5,168.5 C 238.826,172.015 236.326,175.681 234,179.5C 233.667,179.167 233.333,178.833 233,178.5C 232.184,179.823 231.017,180.489 229.5,180.5C 233.167,176.167 237.167,172.167 241.5,168.5 Z"/></g>
<g><path style="opacity:1" fill="#5f696d" d="M 54.5,178.5 C 85.0026,177.17 115.669,177.17 146.5,178.5C 146.376,179.107 146.043,179.44 145.5,179.5C 115.338,178.502 85.0046,178.169 54.5,178.5 Z"/></g>
<g><path style="opacity:1" fill="#7091a5" d="M 163.5,177.5 C 175.186,177.168 186.852,177.501 198.5,178.5C 184.535,190.163 168.535,194.496 150.5,191.5C 150.247,189.173 150.914,187.173 152.5,185.5C 155.671,181.973 159.337,179.307 163.5,177.5 Z"/></g>
<g><path style="opacity:1" fill="#7f9cb0" d="M 317.5,177.5 C 317.238,178.978 317.571,180.311 318.5,181.5C 320.614,182.034 322.448,183.034 324,184.5C 324.383,183.944 324.883,183.611 325.5,183.5C 323.754,186.878 322.088,190.212 320.5,193.5C 320.719,192.325 320.386,191.325 319.5,190.5C 317.668,189.752 316.001,188.752 314.5,187.5C 313.817,187.863 313.15,188.196 312.5,188.5C 314.321,184.844 315.987,181.177 317.5,177.5 Z"/></g>
<g><path style="opacity:1" fill="#fdfdfd" d="M 320.5,193.5 C 312.389,208.95 301.056,221.617 286.5,231.5C 283.346,229.876 281.679,227.209 281.5,223.5C 287.77,218.899 293.437,213.566 298.5,207.5C 300.36,206.061 302.027,204.395 303.5,202.5C 306.534,197.811 309.534,193.144 312.5,188.5C 313.15,188.196 313.817,187.863 314.5,187.5C 316.001,188.752 317.668,189.752 319.5,190.5C 320.386,191.325 320.719,192.325 320.5,193.5 Z"/></g>
<g><path style="opacity:1" fill="#081e26" d="M 72.5,189.5 C 73.1174,189.611 73.6174,189.944 74,190.5C 75.8745,198.619 72.7078,202.452 64.5,202C 62.6763,201.34 61.343,200.173 60.5,198.5C 59.8769,189.463 63.8769,186.463 72.5,189.5 Z"/></g>
<g><path style="opacity:1" fill="#80a0b3" d="M 276.5,121.5 C 279.335,123.413 282.668,124.413 286.5,124.5C 286.167,126.5 285.833,128.5 285.5,130.5C 279.189,129.573 272.856,129.406 266.5,130C 261.98,132.007 257.313,133.507 252.5,134.5C 253.603,143.315 254.603,152.148 255.5,161C 256.097,167.22 254.931,173.053 252,178.5C 241.151,192.543 227.651,202.876 211.5,209.5C 219.647,201.191 228.314,193.358 237.5,186C 241.702,182.133 245.535,177.967 249,173.5C 252.64,166.765 253.307,159.765 251,152.5C 248.831,148.828 246.664,145.161 244.5,141.5C 246.526,136.368 247.526,131.035 247.5,125.5C 257.534,126.41 267.201,125.077 276.5,121.5 Z"/></g>
<g><path style="opacity:1" fill="#48565a" d="M 72.5,189.5 C 63.8769,186.463 59.8769,189.463 60.5,198.5C 58.1882,189.314 61.8549,185.814 71.5,188C 72.056,188.383 72.3893,188.883 72.5,189.5 Z"/></g>
<g><path style="opacity:1" fill="#345466" d="M 145.5,200.5 C 143.833,200.5 142.167,200.5 140.5,200.5C 124.833,200.5 109.167,200.5 93.5,200.5C 93.5,201.833 93.5,203.167 93.5,204.5C 92.5489,203.081 92.2155,201.415 92.5,199.5C 110.341,199.17 128.008,199.503 145.5,200.5 Z"/></g>
<g><path style="opacity:1" fill="#7599af" d="M 140.5,200.5 C 149.506,205.633 159.172,207.3 169.5,205.5C 169.389,206.117 169.056,206.617 168.5,207C 171.458,209.128 172.124,211.794 170.5,215C 159.895,219.235 148.895,221.402 137.5,221.5C 137.5,218.5 137.5,215.5 137.5,212.5C 124.5,212.5 111.5,212.5 98.5,212.5C 96.8193,209.797 95.1526,207.131 93.5,204.5C 93.5,203.167 93.5,201.833 93.5,200.5C 109.167,200.5 124.833,200.5 140.5,200.5 Z"/></g>
<g><path style="opacity:1" fill="#597c92" d="M 185.5,198.5 C 180.763,201.976 175.43,204.309 169.5,205.5C 159.172,207.3 149.506,205.633 140.5,200.5C 142.167,200.5 143.833,200.5 145.5,200.5C 159.066,202.308 172.399,201.641 185.5,198.5 Z"/></g>
<g><path style="opacity:1" fill="#7d888a" d="M 303.5,202.5 C 302.027,204.395 300.36,206.061 298.5,207.5C 298.999,204.736 300.665,203.069 303.5,202.5 Z"/></g>
<g><path style="opacity:1" fill="#768b9b" d="M 331.5,215.5 C 329.377,212.044 326.377,209.711 322.5,208.5C 322.866,207.305 323.699,206.639 325,206.5C 327.024,208.016 329.191,209.349 331.5,210.5C 332.788,212.299 332.788,213.965 331.5,215.5 Z"/></g>
<g><path style="opacity:1" fill="#6f8fa3" d="M 32.5,205.5 C 38.6793,204.858 41.8459,207.525 42,213.5C 39.9473,217.292 36.7806,218.458 32.5,217C 28.5419,213.092 28.5419,209.259 32.5,205.5 Z"/></g>
<g><path style="opacity:1" fill="#3f4c51" d="M 85.5,209.5 C 87.1765,210.183 87.8432,211.517 87.5,213.5C 74.788,214.146 62.4547,213.48 50.5,211.5C 62.4381,212.811 74.4381,212.811 86.5,211.5C 86.1373,210.817 85.8039,210.15 85.5,209.5 Z"/></g>
<g><path style="opacity:1" fill="#29485b" d="M 98.5,212.5 C 111.5,212.5 124.5,212.5 137.5,212.5C 137.5,215.5 137.5,218.5 137.5,221.5C 137.167,221.5 136.833,221.5 136.5,221.5C 136.5,218.833 136.5,216.167 136.5,213.5C 123.656,213.829 110.989,213.495 98.5,212.5 Z"/></g>
<g><path style="opacity:1" fill="#81a1b4" d="M 252.5,208.5 C 240.58,210.294 230.914,215.961 223.5,225.5C 214.278,234.9 206.778,245.567 201,257.5C 200.329,258.252 199.496,258.586 198.5,258.5C 204.302,240.86 214.302,226.026 228.5,214C 233.511,209.995 239.178,207.328 245.5,206C 248.614,204.913 250.947,205.746 252.5,208.5 Z"/></g>
<g><path style="opacity:1" fill="#7394a9" d="M 281.5,223.5 C 281.679,227.209 283.346,229.876 286.5,231.5C 264.456,244.678 240.456,250.678 214.5,249.5C 215.785,246.526 217.118,243.526 218.5,240.5C 241.093,240.271 262.093,234.604 281.5,223.5 Z"/></g>
<g><path style="opacity:1" fill="#fbfbfc" d="M 299.5,232.5 C 303.374,234.698 306.708,237.698 309.5,241.5C 306.81,244.185 303.81,246.518 300.5,248.5C 297.605,245.768 295.272,242.602 293.5,239C 295.683,236.984 297.683,234.818 299.5,232.5 Z"/></g>
<g><path style="opacity:1" fill="#7194ab" d="M 175.5,232.5 C 176.675,232.281 177.675,232.614 178.5,233.5C 174.927,238.779 172.093,244.446 170,250.5C 165.104,252.736 160.771,255.736 157,259.5C 145.604,255.913 135.437,250.08 126.5,242C 139.707,241.891 152.707,240.224 165.5,237C 168.91,235.494 172.244,233.994 175.5,232.5 Z"/></g>
<g><path style="opacity:1" fill="#091f27" d="M 100.5,242.5 C 100.663,244.857 100.497,247.19 100,249.5C 99.6667,249.167 99.3333,248.833 99,248.5C 98.5172,249.448 98.3505,250.448 98.5,251.5C 96.5,252.167 94.5,252.833 92.5,253.5C 89.7081,253.548 87.8747,252.215 87,249.5C 85.9023,240.607 89.7356,237.44 98.5,240C 99.3805,240.708 100.047,241.542 100.5,242.5 Z"/></g>
<g><path style="opacity:1" fill="#334146" d="M 100.5,242.5 C 103.435,247.519 102.101,251.353 96.5,254C 94.9343,254.765 93.6009,254.598 92.5,253.5C 94.5,252.833 96.5,252.167 98.5,251.5C 98.3505,250.448 98.5172,249.448 99,248.5C 99.3333,248.833 99.6667,249.167 100,249.5C 100.497,247.19 100.663,244.857 100.5,242.5 Z"/></g>
<g><path style="opacity:1" fill="#7294ab" d="M 281.5,244.5 C 283.288,244.215 284.955,244.548 286.5,245.5C 287.38,247.429 288.38,249.263 289.5,251C 289.241,252.261 288.574,253.261 287.5,254C 266.095,264.282 243.428,268.948 219.5,268C 216.641,265.448 214.974,262.281 214.5,258.5C 234.909,259.633 254.575,256.467 273.5,249C 276.354,247.603 279.02,246.103 281.5,244.5 Z"/></g>
<g><path style="opacity:1" fill="#fafbfb" d="M 169.5,259.5 C 174.509,258.771 178.342,260.437 181,264.5C 180.972,271.529 177.472,274.696 170.5,274C 165.577,269.456 165.244,264.623 169.5,259.5 Z"/></g>
<g><path style="opacity:1" fill="#79888d" d="M 199.5,267.5 C 200.622,266.844 201.955,266.511 203.5,266.5C 205.333,266.585 206.666,267.252 207.5,268.5C 204.946,267.612 202.279,267.279 199.5,267.5 Z"/></g>
<g><path style="opacity:1" fill="#182c33" d="M 208.5,293.5 C 211.167,293.5 213.833,293.5 216.5,293.5C 216.666,299.842 216.5,306.175 216,312.5C 213.333,309.833 210.667,307.167 208,304.5C 207.245,300.745 207.411,297.078 208.5,293.5 Z"/></g>
<g><path style="opacity:1" fill="#364448" d="M 181.5,294.5 C 174.833,294.5 168.167,294.5 161.5,294.5C 161.821,299.695 161.487,304.695 160.5,309.5C 160.5,304.5 160.5,299.5 160.5,294.5C 167.5,293.167 174.5,293.167 181.5,294.5 Z"/></g>
<g><path style="opacity:1" fill="#364448" d="M 239.5,294.5 C 232.833,294.5 226.167,294.5 219.5,294.5C 219.821,299.695 219.487,304.695 218.5,309.5C 218.5,304.167 218.5,298.833 218.5,293.5C 225.687,293.175 232.687,293.509 239.5,294.5 Z"/></g>
<g><path style="opacity:1" fill="#081f27" d="M 135.5,295.5 C 135.5,297.5 135.5,299.5 135.5,301.5C 135.5,302.167 135.167,302.5 134.5,302.5C 131.167,302.5 127.833,302.5 124.5,302.5C 124.5,312.833 124.5,323.167 124.5,333.5C 121.833,333.5 119.167,333.5 116.5,333.5C 116.5,323.167 116.5,312.833 116.5,302.5C 112.833,302.5 109.167,302.5 105.5,302.5C 104.186,300.105 104.186,297.605 105.5,295C 115.577,294.193 125.577,294.36 135.5,295.5 Z"/></g>
<g><path style="opacity:1" fill="#0e2229" d="M 213.5,331.5 C 211.761,328.757 209.427,326.757 206.5,325.5C 202.597,322.053 198.93,318.386 195.5,314.5C 195.44,313.957 195.107,313.624 194.5,313.5C 193.504,319.798 193.17,326.132 193.5,332.5C 190.946,333.388 188.279,333.721 185.5,333.5C 185.333,320.163 185.5,306.829 186,293.5C 196,302.833 206,312.167 216,321.5C 216.667,325.833 216.667,330.167 216,334.5C 214.955,333.627 214.122,332.627 213.5,331.5 Z"/></g>
<g><path style="opacity:1" fill="#0a2029" d="M 145.5,294.5 C 145.5,299.5 145.5,304.5 145.5,309.5C 150.5,309.5 155.5,309.5 160.5,309.5C 161.487,304.695 161.821,299.695 161.5,294.5C 168.167,294.5 174.833,294.5 181.5,294.5C 182.473,296.948 182.806,299.615 182.5,302.5C 178.167,302.5 173.833,302.5 169.5,302.5C 169.5,304.833 169.5,307.167 169.5,309.5C 173.182,309.335 176.848,309.501 180.5,310C 182.673,311.865 183.007,314.031 181.5,316.5C 177.555,317.491 173.555,317.824 169.5,317.5C 169.5,319.833 169.5,322.167 169.5,324.5C 173.514,324.334 177.514,324.501 181.5,325C 182.435,327.381 182.768,329.881 182.5,332.5C 175.5,332.5 168.5,332.5 161.5,332.5C 161.819,327.637 161.486,322.97 160.5,318.5C 155.695,317.513 150.695,317.179 145.5,317.5C 145.5,322.833 145.5,328.167 145.5,333.5C 142.615,333.806 139.948,333.473 137.5,332.5C 137.5,319.833 137.5,307.167 137.5,294.5C 140.167,293.167 142.833,293.167 145.5,294.5 Z"/></g>
<g><path style="opacity:1" fill="#96a1a5" d="M 145.5,294.5 C 146.486,298.97 146.819,303.637 146.5,308.5C 150.833,308.5 155.167,308.5 159.5,308.5C 159.181,303.637 159.514,298.97 160.5,294.5C 160.5,299.5 160.5,304.5 160.5,309.5C 155.5,309.5 150.5,309.5 145.5,309.5C 145.5,304.5 145.5,299.5 145.5,294.5 Z"/></g>
<g><path style="opacity:1" fill="#0a2029" d="M 239.5,294.5 C 240.473,296.948 240.806,299.615 240.5,302.5C 236.167,302.5 231.833,302.5 227.5,302.5C 227.5,304.833 227.5,307.167 227.5,309.5C 231.182,309.335 234.848,309.501 238.5,310C 240.673,311.865 241.007,314.031 239.5,316.5C 235.555,317.491 231.555,317.824 227.5,317.5C 227.5,319.833 227.5,322.167 227.5,324.5C 231.514,324.334 235.514,324.501 239.5,325C 240.435,327.381 240.768,329.881 240.5,332.5C 233.5,332.5 226.5,332.5 219.5,332.5C 219.821,327.305 219.487,322.305 218.5,317.5C 218.5,314.833 218.5,312.167 218.5,309.5C 219.487,304.695 219.821,299.695 219.5,294.5C 226.167,294.5 232.833,294.5 239.5,294.5 Z"/></g>
<g><path style="opacity:1" fill="#526167" d="M 105.5,302.5 C 109.167,302.5 112.833,302.5 116.5,302.5C 116.5,312.833 116.5,323.167 116.5,333.5C 119.167,333.5 121.833,333.5 124.5,333.5C 121.713,334.477 118.713,334.81 115.5,334.5C 115.5,324.167 115.5,313.833 115.5,303.5C 111.958,303.813 108.625,303.479 105.5,302.5 Z"/></g>
<g><path style="opacity:1" fill="#a8b4b9" d="M 195.5,314.5 C 194.833,320.5 194.167,326.5 193.5,332.5C 193.17,326.132 193.504,319.798 194.5,313.5C 195.107,313.624 195.44,313.957 195.5,314.5 Z"/></g>
<g><path style="opacity:1" fill="#0b2028" d="M 261.5,292.5 C 262.458,292.953 263.292,293.619 264,294.5C 270.263,307.123 276.43,319.79 282.5,332.5C 275.837,335.299 271.503,333.299 269.5,326.5C 264.533,325.338 259.533,325.171 254.5,326C 252.839,333.263 248.505,335.43 241.5,332.5C 247.826,318.885 254.493,305.552 261.5,292.5 Z"/></g>
<g><path style="opacity:1" fill="#647074" d="M 259.5,315.5 C 260.918,317.308 262.918,317.975 265.5,317.5C 263.393,318.468 261.059,318.802 258.5,318.5C 258.263,317.209 258.596,316.209 259.5,315.5 Z"/></g>
<g><path style="opacity:1" fill="#fbfbfb" d="M 265.5,317.5 C 262.918,317.975 260.918,317.308 259.5,315.5C 259.685,313.804 260.519,312.471 262,311.5C 263.431,313.364 264.597,315.364 265.5,317.5 Z"/></g>
<g><path style="opacity:1" fill="#0b1f27" d="M 92.5,293.5 C 93.4584,293.953 94.2917,294.619 95,295.5C 101.263,308.123 107.43,320.79 113.5,333.5C 106.837,336.299 102.503,334.299 100.5,327.5C 95.533,326.338 90.533,326.171 85.5,327C 83.8386,334.263 79.5053,336.43 72.5,333.5C 78.826,319.885 85.4926,306.552 92.5,293.5 Z"/></g>
<g><path style="opacity:1" fill="#647074" d="M 90.5,316.5 C 91.9179,318.308 93.9179,318.975 96.5,318.5C 94.3926,319.468 92.0593,319.802 89.5,319.5C 89.2627,318.209 89.596,317.209 90.5,316.5 Z"/></g>
<g><path style="opacity:1" fill="#fafafa" d="M 96.5,318.5 C 93.9179,318.975 91.9179,318.308 90.5,316.5C 90.6854,314.804 91.5187,313.471 93,312.5C 94.4307,314.364 95.5974,316.364 96.5,318.5 Z"/></g>
<g><path style="opacity:1" fill="#7c868d" d="M 137.5,294.5 C 137.5,307.167 137.5,319.833 137.5,332.5C 136.833,322.167 136.167,311.833 135.5,301.5C 135.5,299.5 135.5,297.5 135.5,295.5C 136.167,295.167 136.833,294.833 137.5,294.5 Z"/></g>
<g><path style="opacity:1" fill="#6b767d" d="M 206.5,325.5 C 209.427,326.757 211.761,328.757 213.5,331.5C 210.573,330.243 208.239,328.243 206.5,325.5 Z"/></g>
<g><path style="opacity:1" fill="#0e222a" d="M 291.5,293.5 C 296.58,293.25 301.58,293.75 306.5,295C 311.899,299.106 311.233,302.273 304.5,304.5C 301.722,301.693 298.389,300.86 294.5,302C 291.833,304 291.833,306 294.5,308C 302.162,308.576 307.996,312.076 312,318.5C 313.323,325.355 310.823,330.189 304.5,333C 299.833,333.667 295.167,333.667 290.5,333C 287.689,331.356 285.356,329.19 283.5,326.5C 284.833,324.5 286.5,322.833 288.5,321.5C 292.114,325.165 296.447,326.332 301.5,325C 304.064,322.724 303.73,320.724 300.5,319C 296.5,317.667 292.5,316.333 288.5,315C 283.847,311.212 282.347,306.378 284,300.5C 286.396,297.933 288.896,295.6 291.5,293.5 Z"/></g>
<g><path style="opacity:1" fill="#a1acaf" d="M 134.5,302.5 C 131.713,303.477 128.713,303.81 125.5,303.5C 125.827,313.681 125.494,323.681 124.5,333.5C 124.5,323.167 124.5,312.833 124.5,302.5C 127.833,302.5 131.167,302.5 134.5,302.5 Z"/></g>
<g><path style="opacity:1" fill="#424e51" d="M 160.5,318.5 C 161.486,322.97 161.819,327.637 161.5,332.5C 168.5,332.5 175.5,332.5 182.5,332.5C 175.352,333.492 168.019,333.825 160.5,333.5C 160.5,328.5 160.5,323.5 160.5,318.5 Z"/></g>
<g><path style="opacity:1" fill="#424d51" d="M 218.5,317.5 C 219.487,322.305 219.821,327.305 219.5,332.5C 226.5,332.5 233.5,332.5 240.5,332.5C 233.352,333.492 226.019,333.825 218.5,333.5C 218.5,328.167 218.5,322.833 218.5,317.5 Z"/></g>
</svg>
